<svg xmlns="http://www.w3.org/2000/svg" version="1.1" xml:space="preserve" viewBox="22.96 8.89 115.57 144.18">
	<path fill-rule="evenodd" clip-rule="evenodd" d="M22.999,80.799c0-14.326-0.062-28.653,0.015-42.979 c0.102-19.207,9.41-28.698,28.49-28.784c27.486-0.122,54.973,0.066,82.458-0.147c4.099-0.031,4.404,1.528,4.508,4.884 c0.114,3.674-1.227,4.312-4.564,4.297c-27.485-0.124-54.972-0.137-82.458-0.028c-12.33,0.049-18.297,6.109-18.674,18.433 c-0.025,0.833-0.028,1.666-0.028,2.499c-0.002,27.82-0.036,55.639,0.012,83.458c0.025,14.876,5.719,20.53,20.57,20.543 c26.653,0.025,53.308,0.112,79.959-0.1c4.219-0.034,5.149,1.108,5.237,5.21c0.097,4.492-1.601,5.001-5.451,4.979 c-26.486-0.157-52.973-0.082-79.46-0.085c-1.332,0-2.666,0.002-3.998-0.041c-16.789-0.541-26.273-9.882-26.536-26.662 c-0.237-15.156-0.05-30.318-0.05-45.476C23.019,80.799,23.009,80.799,22.999,80.799z"/>
	<path fill-rule="evenodd" clip-rule="evenodd" d="M42.216,80.514c0-13.495-0.021-26.992,0.007-40.487 c0.02-9.446,2.528-12.018,11.742-12.024c26.658-0.02,53.318,0.135,79.974-0.139c4.738-0.049,4.354,2.201,4.492,5.389 c0.151,3.468-0.484,4.885-4.515,4.85c-24.657-0.216-49.317-0.117-73.976-0.103c-6.741,0.004-7.96,1.183-7.965,7.734 c-0.018,23.493-0.02,46.985,0.001,70.479c0.005,6.537,1.274,7.761,7.963,7.765c24.659,0.014,49.319,0.113,73.976-0.103 c4.026-0.035,4.495,1.396,4.558,4.84c0.065,3.602-1.13,4.359-4.526,4.342c-26.824-0.135-53.649-0.059-80.474-0.085 c-8.6-0.009-11.219-2.684-11.246-11.472C42.185,107.839,42.216,94.177,42.216,80.514z"/>
</svg>