<svg xmlns="http://www.w3.org/2000/svg" viewBox="0 0 169.06 106.8">
	<path d="M98.3,0c-1.49,.04-2.92,.55-4.1,1.46s-2.02,2.18-2.43,3.61l-27.83,92.78c-.71,2.38-.1,4.96,1.61,6.77,1.71,1.81,4.25,2.57,6.67,1.99,2.42-.57,4.35-2.4,5.06-4.78L105.11,9.06c.68-2.15,.28-4.49-1.07-6.29S100.55-.06,98.3,0h0Z" />
	<path d="M43.7,7.03c-1.8,.11-3.49,.91-4.71,2.25L1.87,48.71c-1.2,1.29-1.87,2.99-1.87,4.75s.67,3.46,1.87,4.75l37.11,39.43c1.23,1.46,3,2.36,4.91,2.48,1.91,.12,3.78-.56,5.18-1.86,1.4-1.31,2.19-3.13,2.2-5.04,.01-1.91-.76-3.74-2.14-5.07L16.51,53.5,49.13,18.78c1.29-1.36,1.98-3.17,1.91-5.04-.07-1.87-.88-3.63-2.27-4.89-1.38-1.26-3.21-1.91-5.08-1.81h0Z" />
	<path d="M124.42,7.03c-1.76,.14-3.4,.94-4.59,2.24-1.19,1.3-1.84,3.01-1.83,4.77,.02,1.77,.71,3.46,1.92,4.73l32.62,34.72-32.62,34.65h0c-1.38,1.32-2.16,3.16-2.14,5.07,.01,1.91,.81,3.73,2.2,5.04,1.4,1.31,3.27,1.98,5.18,1.86,1.91-.11,3.68-1.01,4.91-2.48l37.11-39.43c1.2-1.29,1.87-2.99,1.87-4.75s-.67-3.46-1.87-4.75L130.08,9.28c-1.44-1.58-3.52-2.4-5.65-2.25h0Z" />
</svg>